<?xml version="1.0" standalone="no"?>
<!DOCTYPE svg PUBLIC "-//W3C//DTD SVG 20010904//EN" "http://www.w3.org/TR/2001/REC-SVG-20010904/DTD/svg10.dtd">
<svg version="1.0" xmlns="http://www.w3.org/2000/svg"
     width="512pt" height="512pt" viewBox="0 0 512 512"
     preserveAspectRatio="xMidYMid meet">
    <g transform="translate(0.000000,512.000000) scale(0.100000,-0.100000)"
       fill="#000000" stroke="none">
        <!-- Shield outline -->
        <path d="M2340 4480 c-490 -48 -920 -290 -1220 -690 -200 -266 -320 -580 -360
        -940 -20 -180 -20 -500 0 -680 40 -360 160 -674 360 -940 300 -400 730 -642
        1220 -690 180 -20 500 -20 680 0 490 48 920 290 1220 690 200 266 320 580 360
        940 20 180 20 500 0 680 -40 360 -160 674 -360 940 -300 400 -730 642 -1220
        690 -180 20 -500 20 -680 0z m660 -340 c440 -60 820 -320 1020 -700 140 -260
        200 -560 180 -880 -20 -320 -120 -600 -300 -840 -260 -340 -640 -540 -1080
        -560 -320 -20 -620 40 -880 180 -380 200 -640 580 -700 1020 -20 180 -20 500 0
        680 60 440 320 820 700 1020 260 140 560 200 880 180 80 -4 160 -12 180 -20z"/>
        <!-- Inner shield pattern -->
        <path d="M2420 3840 c-360 -40 -680 -240 -880 -540 -140 -220 -200 -460 -180
        -720 20 -260 120 -500 300 -680 260 -260 640 -380 1020 -320 380 60 700 320
        820 680 80 240 80 500 0 740 -120 360 -440 620 -820 680 -100 16 -160 16 -260
        0z"/>
    </g>
</svg> 